<?xml version="1.0" encoding="UTF-8"?>
<mxfile host="app.diagrams.net" modified="2023-02-28T16:28:36.061Z" agent="5.0 (Macintosh; Intel Mac OS X 10_15_7) AppleWebKit/537.36 (KHTML, like Gecko) Chrome/109.0.0.0 Safari/537.36" etag="Newlfp9n2SAhfpOt89ig" version="20.8.20" type="google">
  <diagram name="Page-1" id="qFtUG0NtOJEkVkK01hXA">
    <mxGraphModel dx="592" dy="576" grid="1" gridSize="10" guides="1" tooltips="1" connect="1" arrows="1" fold="1" page="1" pageScale="1" pageWidth="850" pageHeight="1100" math="0" shadow="0">
      <root>
        <mxCell id="0" />
        <mxCell id="1" parent="0" />
        <mxCell id="E4EEwXi5I9yXE05dpHtt-1" value="&lt;b&gt;Customer&lt;/b&gt;" style="shape=umlActor;verticalLabelPosition=bottom;verticalAlign=top;html=1;outlineConnect=0;" parent="1" vertex="1">
          <mxGeometry x="110" y="115" width="30" height="50" as="geometry" />
        </mxCell>
        <mxCell id="E4EEwXi5I9yXE05dpHtt-2" value="&lt;b&gt;Photographer&lt;/b&gt;" style="shape=umlActor;verticalLabelPosition=bottom;verticalAlign=top;html=1;outlineConnect=0;" parent="1" vertex="1">
          <mxGeometry x="700" y="100" width="30" height="40" as="geometry" />
        </mxCell>
        <mxCell id="E4EEwXi5I9yXE05dpHtt-6" value="" style="whiteSpace=wrap;html=1;aspect=fixed;fillColor=#ebf9ff;strokeColor=#10739e;" parent="1" vertex="1">
          <mxGeometry x="180" y="70" width="480" height="480" as="geometry" />
        </mxCell>
        <mxCell id="E4EEwXi5I9yXE05dpHtt-14" value="&lt;b&gt;Chef&lt;/b&gt;" style="shape=umlActor;verticalLabelPosition=bottom;verticalAlign=top;html=1;outlineConnect=0;" parent="1" vertex="1">
          <mxGeometry x="700" y="190" width="30" height="40" as="geometry" />
        </mxCell>
        <mxCell id="E4EEwXi5I9yXE05dpHtt-18" style="edgeStyle=orthogonalEdgeStyle;rounded=0;orthogonalLoop=1;jettySize=auto;html=1;" parent="1" source="E4EEwXi5I9yXE05dpHtt-15" edge="1">
          <mxGeometry relative="1" as="geometry">
            <mxPoint x="740" y="130" as="targetPoint" />
            <Array as="points">
              <mxPoint x="820" y="210" />
              <mxPoint x="780" y="210" />
              <mxPoint x="780" y="130" />
            </Array>
          </mxGeometry>
        </mxCell>
        <mxCell id="E4EEwXi5I9yXE05dpHtt-19" style="edgeStyle=orthogonalEdgeStyle;rounded=0;orthogonalLoop=1;jettySize=auto;html=1;" parent="1" edge="1">
          <mxGeometry relative="1" as="geometry">
            <mxPoint x="740" y="210" as="targetPoint" />
            <Array as="points">
              <mxPoint x="820" y="210" />
            </Array>
            <mxPoint x="820" y="210" as="sourcePoint" />
          </mxGeometry>
        </mxCell>
        <mxCell id="E4EEwXi5I9yXE05dpHtt-15" value="&lt;b&gt;Staff&lt;/b&gt;" style="shape=umlActor;verticalLabelPosition=bottom;verticalAlign=top;html=1;outlineConnect=0;" parent="1" vertex="1">
          <mxGeometry x="810" y="140" width="30" height="60" as="geometry" />
        </mxCell>
        <mxCell id="E4EEwXi5I9yXE05dpHtt-22" value="&lt;b&gt;Banking System&lt;/b&gt;" style="rounded=0;whiteSpace=wrap;html=1;" parent="1" vertex="1">
          <mxGeometry x="690" y="420" width="120" height="70" as="geometry" />
        </mxCell>
        <mxCell id="E4EEwXi5I9yXE05dpHtt-24" value="&lt;font style=&quot;font-size: 11.5px;&quot;&gt;Select facilities&lt;br&gt;&lt;/font&gt;" style="ellipse;whiteSpace=wrap;html=1;strokeWidth=1;" parent="1" vertex="1">
          <mxGeometry x="250" y="90" width="90" height="60" as="geometry" />
        </mxCell>
        <mxCell id="E4EEwXi5I9yXE05dpHtt-34" value="&lt;font style=&quot;font-size: 11.5px;&quot;&gt;Photography&lt;/font&gt;" style="ellipse;whiteSpace=wrap;html=1;strokeWidth=1;" parent="1" vertex="1">
          <mxGeometry x="500" y="80" width="80" height="50" as="geometry" />
        </mxCell>
        <mxCell id="E4EEwXi5I9yXE05dpHtt-35" value="&lt;div&gt;&amp;lt;&amp;lt;extend&amp;gt;&amp;gt;&lt;/div&gt;" style="endArrow=open;dashed=1;html=1;endFill=0;rounded=0;fontSize=11.5;exitX=0.013;exitY=0.35;exitDx=0;exitDy=0;exitPerimeter=0;" parent="1" source="E4EEwXi5I9yXE05dpHtt-34" target="E4EEwXi5I9yXE05dpHtt-24" edge="1">
          <mxGeometry x="0.0047" width="50" height="50" relative="1" as="geometry">
            <mxPoint x="450" y="190" as="sourcePoint" />
            <mxPoint x="338.69627894798055" y="182.83107923509692" as="targetPoint" />
            <mxPoint as="offset" />
          </mxGeometry>
        </mxCell>
        <mxCell id="E4EEwXi5I9yXE05dpHtt-38" value="&lt;font style=&quot;font-size: 11px;&quot;&gt;Meals&lt;/font&gt;" style="ellipse;whiteSpace=wrap;html=1;strokeWidth=1;" parent="1" vertex="1">
          <mxGeometry x="420" y="125" width="80" height="50" as="geometry" />
        </mxCell>
        <mxCell id="E4EEwXi5I9yXE05dpHtt-39" value="&lt;div&gt;&amp;lt;&amp;lt;include&amp;gt;&amp;gt;&lt;/div&gt;" style="endArrow=open;dashed=1;html=1;endFill=0;rounded=0;fontSize=11.5;" parent="1" target="E4EEwXi5I9yXE05dpHtt-24" edge="1">
          <mxGeometry width="50" height="50" relative="1" as="geometry">
            <mxPoint x="437" y="132" as="sourcePoint" />
            <mxPoint x="336.0853919777189" y="202.23820186570356" as="targetPoint" />
          </mxGeometry>
        </mxCell>
        <mxCell id="E4EEwXi5I9yXE05dpHtt-40" value="&lt;span style=&quot;font-size: 11px;&quot;&gt;Music band&lt;/span&gt;" style="ellipse;whiteSpace=wrap;html=1;strokeWidth=1;" parent="1" vertex="1">
          <mxGeometry x="370" y="175" width="75" height="55" as="geometry" />
        </mxCell>
        <mxCell id="E4EEwXi5I9yXE05dpHtt-41" value="&lt;div&gt;&amp;lt;&amp;lt;include&amp;gt;&amp;gt;&lt;/div&gt;" style="endArrow=open;dashed=1;html=1;endFill=0;rounded=0;fontSize=11.5;exitX=0;exitY=0;exitDx=0;exitDy=0;" parent="1" source="E4EEwXi5I9yXE05dpHtt-40" target="E4EEwXi5I9yXE05dpHtt-24" edge="1">
          <mxGeometry x="-0.1816" y="-4" width="50" height="50" relative="1" as="geometry">
            <mxPoint x="361" y="265" as="sourcePoint" />
            <mxPoint x="276.01" y="216.51999999999998" as="targetPoint" />
            <mxPoint as="offset" />
          </mxGeometry>
        </mxCell>
        <mxCell id="E4EEwXi5I9yXE05dpHtt-43" value="&lt;font style=&quot;font-size: 11.5px;&quot;&gt;Submit order&lt;/font&gt;" style="ellipse;whiteSpace=wrap;html=1;strokeWidth=1;" parent="1" vertex="1">
          <mxGeometry x="250" y="240" width="80" height="55" as="geometry" />
        </mxCell>
        <mxCell id="E4EEwXi5I9yXE05dpHtt-46" value="" style="endArrow=none;html=1;rounded=0;fontSize=11;fillColor=#d80073;strokeColor=#A50040;" parent="1" target="E4EEwXi5I9yXE05dpHtt-24" edge="1">
          <mxGeometry width="50" height="50" relative="1" as="geometry">
            <mxPoint x="150" y="140" as="sourcePoint" />
            <mxPoint x="230" y="210" as="targetPoint" />
          </mxGeometry>
        </mxCell>
        <mxCell id="E4EEwXi5I9yXE05dpHtt-47" value="" style="endArrow=none;html=1;rounded=0;fontSize=11;fillColor=#d80073;strokeColor=#A50040;" parent="1" target="yaYsJwdqfozZHULSZaXw-1" edge="1">
          <mxGeometry width="50" height="50" relative="1" as="geometry">
            <mxPoint x="150" y="140" as="sourcePoint" />
            <mxPoint x="253.96000000000004" y="178.48000000000002" as="targetPoint" />
          </mxGeometry>
        </mxCell>
        <mxCell id="E4EEwXi5I9yXE05dpHtt-48" value="" style="endArrow=none;html=1;rounded=0;fontSize=11;entryX=0;entryY=0;entryDx=0;entryDy=0;fillColor=#d80073;strokeColor=#A50040;" parent="1" target="E4EEwXi5I9yXE05dpHtt-43" edge="1">
          <mxGeometry width="50" height="50" relative="1" as="geometry">
            <mxPoint x="150" y="140" as="sourcePoint" />
            <mxPoint x="264" y="188" as="targetPoint" />
            <Array as="points">
              <mxPoint x="150" y="140" />
            </Array>
          </mxGeometry>
        </mxCell>
        <mxCell id="E4EEwXi5I9yXE05dpHtt-50" value="&lt;font style=&quot;font-size: 11.5px;&quot;&gt;Payment&amp;nbsp;&lt;/font&gt;" style="ellipse;whiteSpace=wrap;html=1;strokeWidth=1;" parent="1" vertex="1">
          <mxGeometry x="250" y="310" width="80" height="50" as="geometry" />
        </mxCell>
        <mxCell id="E4EEwXi5I9yXE05dpHtt-52" value="&lt;font style=&quot;font-size: 11.5px;&quot;&gt;Edit order&lt;/font&gt;" style="ellipse;whiteSpace=wrap;html=1;strokeWidth=1;" parent="1" vertex="1">
          <mxGeometry x="250" y="370" width="80" height="50" as="geometry" />
        </mxCell>
        <mxCell id="E4EEwXi5I9yXE05dpHtt-53" value="&lt;font style=&quot;font-size: 11px;&quot;&gt;Cancel Order &amp;amp;&amp;nbsp; Refund&lt;/font&gt;" style="ellipse;whiteSpace=wrap;html=1;strokeWidth=1;" parent="1" vertex="1">
          <mxGeometry x="250" y="440" width="80" height="50" as="geometry" />
        </mxCell>
        <mxCell id="E4EEwXi5I9yXE05dpHtt-56" value="" style="endArrow=none;html=1;rounded=0;fontSize=11;entryX=0.05;entryY=0.28;entryDx=0;entryDy=0;entryPerimeter=0;fillColor=#d80073;strokeColor=#A50040;" parent="1" target="E4EEwXi5I9yXE05dpHtt-50" edge="1">
          <mxGeometry width="50" height="50" relative="1" as="geometry">
            <mxPoint x="160" y="150" as="sourcePoint" />
            <mxPoint x="272" y="287" as="targetPoint" />
            <Array as="points">
              <mxPoint x="150" y="140" />
              <mxPoint x="160" y="150" />
            </Array>
          </mxGeometry>
        </mxCell>
        <mxCell id="E4EEwXi5I9yXE05dpHtt-57" value="" style="endArrow=none;html=1;rounded=0;fontSize=11;entryX=0;entryY=0.5;entryDx=0;entryDy=0;fillColor=#d80073;strokeColor=#A50040;" parent="1" target="E4EEwXi5I9yXE05dpHtt-52" edge="1">
          <mxGeometry width="50" height="50" relative="1" as="geometry">
            <mxPoint x="150" y="140" as="sourcePoint" />
            <mxPoint x="262" y="277" as="targetPoint" />
            <Array as="points">
              <mxPoint x="150" y="140" />
            </Array>
          </mxGeometry>
        </mxCell>
        <mxCell id="E4EEwXi5I9yXE05dpHtt-58" value="" style="endArrow=none;html=1;rounded=0;fontSize=11;entryX=0;entryY=0.5;entryDx=0;entryDy=0;fillColor=#d80073;strokeColor=#A50040;" parent="1" target="E4EEwXi5I9yXE05dpHtt-53" edge="1">
          <mxGeometry width="50" height="50" relative="1" as="geometry">
            <mxPoint x="160" y="150" as="sourcePoint" />
            <mxPoint x="260" y="425" as="targetPoint" />
            <Array as="points">
              <mxPoint x="160" y="150" />
            </Array>
          </mxGeometry>
        </mxCell>
        <mxCell id="E4EEwXi5I9yXE05dpHtt-69" value="" style="endArrow=none;html=1;rounded=0;fontSize=11;endSize=5;exitX=1;exitY=0.5;exitDx=0;exitDy=0;entryX=0;entryY=0.5;entryDx=0;entryDy=0;" parent="1" source="E4EEwXi5I9yXE05dpHtt-50" target="E4EEwXi5I9yXE05dpHtt-22" edge="1">
          <mxGeometry width="50" height="50" relative="1" as="geometry">
            <mxPoint x="340" y="290" as="sourcePoint" />
            <mxPoint x="700" y="410" as="targetPoint" />
          </mxGeometry>
        </mxCell>
        <mxCell id="E4EEwXi5I9yXE05dpHtt-70" value="" style="endArrow=none;html=1;rounded=0;fontSize=11;endSize=5;exitX=0.95;exitY=0.28;exitDx=0;exitDy=0;entryX=0;entryY=0.5;entryDx=0;entryDy=0;exitPerimeter=0;" parent="1" source="E4EEwXi5I9yXE05dpHtt-53" target="E4EEwXi5I9yXE05dpHtt-22" edge="1">
          <mxGeometry width="50" height="50" relative="1" as="geometry">
            <mxPoint x="340" y="355" as="sourcePoint" />
            <mxPoint x="700" y="490" as="targetPoint" />
          </mxGeometry>
        </mxCell>
        <mxCell id="E4EEwXi5I9yXE05dpHtt-72" value="" style="endArrow=none;html=1;rounded=0;fontSize=11;endSize=5;fillColor=#6a00ff;strokeColor=#3700CC;" parent="1" source="E4EEwXi5I9yXE05dpHtt-34" edge="1">
          <mxGeometry width="50" height="50" relative="1" as="geometry">
            <mxPoint x="340" y="355" as="sourcePoint" />
            <mxPoint x="690" y="160" as="targetPoint" />
          </mxGeometry>
        </mxCell>
        <mxCell id="E4EEwXi5I9yXE05dpHtt-77" value="" style="endArrow=none;html=1;rounded=0;fontSize=11;endSize=5;fillColor=#fa6800;strokeColor=#C73500;exitX=1;exitY=0.5;exitDx=0;exitDy=0;" parent="1" edge="1" source="E4EEwXi5I9yXE05dpHtt-43">
          <mxGeometry width="50" height="50" relative="1" as="geometry">
            <mxPoint x="330" y="250" as="sourcePoint" />
            <mxPoint x="700" y="240" as="targetPoint" />
            <Array as="points">
              <mxPoint x="540" y="270" />
            </Array>
          </mxGeometry>
        </mxCell>
        <mxCell id="E4EEwXi5I9yXE05dpHtt-78" value="" style="shape=umlActor;verticalLabelPosition=bottom;verticalAlign=top;html=1;outlineConnect=0;fontSize=11;" parent="1" vertex="1">
          <mxGeometry x="700" y="430" width="10" height="20" as="geometry" />
        </mxCell>
        <mxCell id="E4EEwXi5I9yXE05dpHtt-81" value="" style="endArrow=none;html=1;rounded=0;fontSize=11;endSize=5;fillColor=#fa6800;strokeColor=#C73500;exitX=0.963;exitY=0.69;exitDx=0;exitDy=0;exitPerimeter=0;" parent="1" source="yaYsJwdqfozZHULSZaXw-17" edge="1">
          <mxGeometry width="50" height="50" relative="1" as="geometry">
            <mxPoint x="320" y="330" as="sourcePoint" />
            <mxPoint x="700" y="238" as="targetPoint" />
            <Array as="points" />
          </mxGeometry>
        </mxCell>
        <mxCell id="yaYsJwdqfozZHULSZaXw-1" value="&lt;font style=&quot;font-size: 11.5px;&quot;&gt;Login/Sign up&lt;/font&gt;" style="ellipse;whiteSpace=wrap;html=1;strokeWidth=1;" vertex="1" parent="1">
          <mxGeometry x="255" y="175" width="80" height="55" as="geometry" />
        </mxCell>
        <mxCell id="yaYsJwdqfozZHULSZaXw-5" value="&lt;b&gt;Singer&lt;/b&gt;" style="shape=umlActor;verticalLabelPosition=bottom;verticalAlign=top;html=1;outlineConnect=0;" vertex="1" parent="1">
          <mxGeometry x="700" y="280" width="30" height="40" as="geometry" />
        </mxCell>
        <mxCell id="yaYsJwdqfozZHULSZaXw-9" value="" style="endArrow=none;html=1;rounded=0;exitX=1;exitY=1;exitDx=0;exitDy=0;fillColor=#008a00;strokeColor=#005700;" edge="1" parent="1" source="E4EEwXi5I9yXE05dpHtt-40">
          <mxGeometry width="50" height="50" relative="1" as="geometry">
            <mxPoint x="640" y="340" as="sourcePoint" />
            <mxPoint x="700" y="300" as="targetPoint" />
          </mxGeometry>
        </mxCell>
        <mxCell id="yaYsJwdqfozZHULSZaXw-10" value="" style="endArrow=none;html=1;rounded=0;fontSize=11;endSize=5;fillColor=#6a00ff;strokeColor=#3700CC;exitX=1;exitY=0.5;exitDx=0;exitDy=0;" edge="1" parent="1" source="E4EEwXi5I9yXE05dpHtt-43">
          <mxGeometry width="50" height="50" relative="1" as="geometry">
            <mxPoint x="626" y="146" as="sourcePoint" />
            <mxPoint x="690" y="160" as="targetPoint" />
            <Array as="points">
              <mxPoint x="520" y="253" />
            </Array>
          </mxGeometry>
        </mxCell>
        <mxCell id="yaYsJwdqfozZHULSZaXw-11" value="" style="endArrow=none;html=1;rounded=0;exitX=1;exitY=0.5;exitDx=0;exitDy=0;fillColor=#008a00;strokeColor=#005700;" edge="1" parent="1" source="E4EEwXi5I9yXE05dpHtt-43">
          <mxGeometry width="50" height="50" relative="1" as="geometry">
            <mxPoint x="504" y="232" as="sourcePoint" />
            <mxPoint x="700" y="300" as="targetPoint" />
          </mxGeometry>
        </mxCell>
        <mxCell id="yaYsJwdqfozZHULSZaXw-16" style="edgeStyle=orthogonalEdgeStyle;rounded=0;orthogonalLoop=1;jettySize=auto;html=1;" edge="1" parent="1">
          <mxGeometry relative="1" as="geometry">
            <mxPoint x="740" y="310" as="targetPoint" />
            <Array as="points">
              <mxPoint x="810" y="210" />
              <mxPoint x="780" y="210" />
              <mxPoint x="780" y="310" />
            </Array>
            <mxPoint x="810" y="210" as="sourcePoint" />
          </mxGeometry>
        </mxCell>
        <mxCell id="yaYsJwdqfozZHULSZaXw-17" value="&lt;font style=&quot;font-size: 11px;&quot;&gt;Main course&lt;/font&gt;" style="ellipse;whiteSpace=wrap;html=1;strokeWidth=1;" vertex="1" parent="1">
          <mxGeometry x="580" y="140" width="60" height="40" as="geometry" />
        </mxCell>
        <mxCell id="yaYsJwdqfozZHULSZaXw-19" value="&lt;div&gt;&amp;lt;&amp;lt;include&amp;gt;&amp;gt;&lt;/div&gt;" style="endArrow=open;dashed=1;html=1;endFill=0;rounded=0;fontSize=11.5;exitX=0;exitY=0.5;exitDx=0;exitDy=0;entryX=1;entryY=0.5;entryDx=0;entryDy=0;" edge="1" parent="1" source="yaYsJwdqfozZHULSZaXw-17" target="E4EEwXi5I9yXE05dpHtt-38">
          <mxGeometry width="50" height="50" relative="1" as="geometry">
            <mxPoint x="447" y="142" as="sourcePoint" />
            <mxPoint x="350" y="134" as="targetPoint" />
          </mxGeometry>
        </mxCell>
        <mxCell id="yaYsJwdqfozZHULSZaXw-20" value="&lt;font style=&quot;font-size: 11px;&quot;&gt;Dessert&lt;/font&gt;" style="ellipse;whiteSpace=wrap;html=1;strokeWidth=1;" vertex="1" parent="1">
          <mxGeometry x="540" y="175" width="50" height="40" as="geometry" />
        </mxCell>
        <mxCell id="yaYsJwdqfozZHULSZaXw-21" value="&lt;div&gt;&amp;lt;&amp;lt;include&amp;gt;&amp;gt;&lt;/div&gt;" style="endArrow=open;dashed=1;html=1;endFill=0;rounded=0;fontSize=11.5;" edge="1" parent="1" source="yaYsJwdqfozZHULSZaXw-20" target="E4EEwXi5I9yXE05dpHtt-38">
          <mxGeometry x="0.2189" y="1" width="50" height="50" relative="1" as="geometry">
            <mxPoint x="590" y="170" as="sourcePoint" />
            <mxPoint x="515" y="160" as="targetPoint" />
            <mxPoint as="offset" />
          </mxGeometry>
        </mxCell>
        <mxCell id="yaYsJwdqfozZHULSZaXw-22" value="" style="endArrow=none;html=1;rounded=0;fontSize=11;endSize=5;fillColor=#fa6800;strokeColor=#C73500;exitX=1;exitY=1;exitDx=0;exitDy=0;" edge="1" parent="1" source="yaYsJwdqfozZHULSZaXw-20">
          <mxGeometry width="50" height="50" relative="1" as="geometry">
            <mxPoint x="648" y="178" as="sourcePoint" />
            <mxPoint x="700" y="240" as="targetPoint" />
            <Array as="points" />
          </mxGeometry>
        </mxCell>
      </root>
    </mxGraphModel>
  </diagram>
</mxfile>
